<svg width="871" height="474" viewBox="0 0 871 474" fill="none" xmlns="http://www.w3.org/2000/svg">
<path d="M2.56515 159.048C20.0807 154.781 34.1761 159.911 44.8513 174.439C55.5265 188.966 69.6219 194.096 87.1375 189.83C104.653 185.563 118.748 190.693 129.424 205.22C140.099 219.748 154.194 224.878 171.71 220.611C189.225 216.345 203.321 221.475 213.996 236.002C224.671 250.529 238.767 255.66 256.282 251.393C273.798 247.127 287.893 252.257 298.568 266.784C309.244 281.311 323.339 286.442 340.854 282.175C358.37 277.908 372.465 283.039 383.141 297.566C393.816 312.093 407.911 317.223 425.427 312.957C442.942 308.69 457.038 313.82 467.713 328.348C478.388 342.875 492.484 348.005 509.999 343.739C527.515 339.472 541.61 344.602 552.285 359.129C562.961 373.657 577.056 378.787 594.571 374.52C612.087 370.254 626.182 375.384 636.858 389.911C647.533 404.439 661.628 409.569 679.144 405.302C696.659 401.036 710.755 406.166 721.43 420.693C732.105 435.22 746.201 440.351 763.716 436.084C781.232 431.817 795.327 436.948 806.002 451.475C816.678 466.002 830.773 471.132 848.289 466.866" stroke="#54BAB9" stroke-width="10"/>
<path d="M7.56514 121.048C25.0807 116.781 39.1761 121.911 49.8513 136.439C60.5265 150.966 74.6219 156.096 92.1375 151.83C109.653 147.563 123.748 152.693 134.424 167.22C145.099 181.748 159.194 186.878 176.71 182.611C194.225 178.345 208.321 183.475 218.996 198.002C229.671 212.529 243.767 217.66 261.282 213.393C278.798 209.127 292.893 214.257 303.568 228.784C314.244 243.311 328.339 248.442 345.854 244.175C363.37 239.908 377.465 245.039 388.141 259.566C398.816 274.093 412.911 279.223 430.427 274.957C447.942 270.69 462.038 275.82 472.713 290.348C483.388 304.875 497.484 310.005 514.999 305.739C532.515 301.472 546.61 306.602 557.285 321.129C567.961 335.657 582.056 340.787 599.571 336.52C617.087 332.254 631.182 337.384 641.858 351.911C652.533 366.439 666.628 371.569 684.144 367.302C701.659 363.036 715.755 368.166 726.43 382.693C737.105 397.22 751.201 402.351 768.716 398.084C786.232 393.817 800.327 398.948 811.002 413.475C821.678 428.002 835.773 433.132 853.288 428.866" stroke="#54BAB9" stroke-width="10"/>
<path d="M12.5651 83.0477C30.0807 78.7811 44.1761 83.9114 54.8513 98.4386C65.5265 112.966 79.6219 118.096 97.1375 113.83C114.653 109.563 128.748 114.693 139.424 129.22C150.099 143.748 164.194 148.878 181.71 144.611C199.225 140.345 213.321 145.475 223.996 160.002C234.671 174.529 248.767 179.66 266.282 175.393C283.798 171.127 297.893 176.257 308.568 190.784C319.243 205.311 333.339 210.442 350.854 206.175C368.37 201.908 382.465 207.039 393.141 221.566C403.816 236.093 417.911 241.223 435.427 236.957C452.942 232.69 467.038 237.82 477.713 252.348C488.388 266.875 502.484 272.005 519.999 267.739C537.515 263.472 551.61 268.602 562.285 283.129C572.961 297.657 587.056 302.787 604.571 298.52C622.087 294.254 636.182 299.384 646.858 313.911C657.533 328.439 671.628 333.569 689.144 329.302C706.659 325.036 720.755 330.166 731.43 344.693C742.105 359.22 756.201 364.351 773.716 360.084C791.232 355.817 805.327 360.948 816.002 375.475C826.678 390.002 840.773 395.132 858.288 390.866" stroke="#54BAB9" stroke-width="10"/>
<path d="M17.5651 45.0477C35.0807 40.7811 49.1761 45.9114 59.8513 60.4386C70.5265 74.9658 84.6219 80.0961 102.137 75.8295C119.653 71.5629 133.748 76.6932 144.424 91.2204C155.099 105.748 169.194 110.878 186.71 106.611C204.225 102.345 218.321 107.475 228.996 122.002C239.671 136.529 253.767 141.66 271.282 137.393C288.798 133.127 302.893 138.257 313.568 152.784C324.243 167.311 338.339 172.442 355.854 168.175C373.37 163.908 387.465 169.039 398.141 183.566C408.816 198.093 422.911 203.223 440.427 198.957C457.942 194.69 472.038 199.82 482.713 214.348C493.388 228.875 507.484 234.005 524.999 229.739C542.515 225.472 556.61 230.602 567.285 245.129C577.96 259.657 592.056 264.787 609.571 260.52C627.087 256.254 641.182 261.384 651.858 275.911C662.533 290.439 676.628 295.569 694.144 291.302C711.659 287.036 725.755 292.166 736.43 306.693C747.105 321.22 761.201 326.351 778.716 322.084C796.232 317.817 810.327 322.948 821.002 337.475C831.678 352.002 845.773 357.132 863.288 352.866" stroke="#54BAB9" stroke-width="10"/>
<path d="M22.5651 7.04769C40.0807 2.78107 54.1761 7.91137 64.8513 22.4386C75.5265 36.9658 89.6219 42.0961 107.137 37.8295C124.653 33.5629 138.748 38.6932 149.424 53.2204C160.099 67.7476 174.194 72.8779 191.71 68.6113C209.225 64.3447 223.321 69.475 233.996 84.0022C244.671 98.5295 258.767 103.66 276.282 99.3931C293.798 95.1265 307.893 100.257 318.568 114.784C329.243 129.311 343.339 134.442 360.854 130.175C378.37 125.908 392.465 131.039 403.141 145.566C413.816 160.093 427.911 165.223 445.427 160.957C462.942 156.69 477.038 161.82 487.713 176.348C498.388 190.875 512.484 196.005 529.999 191.739C547.515 187.472 561.61 192.602 572.285 207.129C582.96 221.657 597.056 226.787 614.571 222.52C632.087 218.254 646.182 223.384 656.858 237.911C667.533 252.439 681.628 257.569 699.144 253.302C716.659 249.036 730.755 254.166 741.43 268.693C752.105 283.22 766.201 288.351 783.716 284.084C801.232 279.817 815.327 284.948 826.002 299.475C836.677 314.002 850.773 319.132 868.288 314.866" stroke="#54BAB9" stroke-width="10"/>
</svg>
